<?xml version="1.0" encoding="utf-8"?>
<!-- Uploaded to: SVG Repo, www.svgrepo.com, Generator: SVG Repo Mixer Tools -->
<svg width="800px" height="800px" viewBox="0 0 1024 1024" class="icon"  version="1.1" xmlns="http://www.w3.org/2000/svg"><path d="M513.1 511.3m-478.4 0a478.4 478.4 0 1 0 956.8 0 478.4 478.4 0 1 0-956.8 0Z" fill="#89B7F5" /><path d="M513.1 1004.7c-66.6 0-131.2-13-192.1-38.8-58.8-24.9-111.5-60.4-156.8-105.7-45.3-45.3-80.9-98.1-105.7-156.8-25.7-60.8-38.8-125.5-38.8-192.1s13-131.2 38.8-192.1c24.9-58.8 60.4-111.5 105.7-156.8 45.3-45.3 98.1-80.9 156.8-105.7C381.8 31 446.5 17.9 513.1 17.9s131.2 13 192.1 38.8C764 81.6 816.7 117.1 862 162.4c45.3 45.3 80.9 98.1 105.7 156.8 25.7 60.8 38.8 125.5 38.8 192.1s-13 131.2-38.8 192.1c-24.9 58.8-60.4 111.5-105.7 156.8-45.3 45.3-98.1 80.9-156.8 105.7-60.9 25.8-125.5 38.8-192.1 38.8z m0-956.8c-62.6 0-123.2 12.2-180.4 36.4-55.2 23.3-104.7 56.8-147.3 99.3-42.6 42.6-76 92.1-99.3 147.3C61.9 388 49.7 448.7 49.7 511.3s12.2 123.2 36.4 180.4c23.3 55.2 56.8 104.7 99.3 147.3 42.6 42.6 92.1 76 147.3 99.3 57.1 24.2 117.8 36.4 180.4 36.4 62.6 0 123.2-12.2 180.4-36.4 55.2-23.3 104.7-56.8 147.3-99.3s76-92.1 99.3-147.3c24.2-57.1 36.4-117.8 36.4-180.4S964.2 388.1 940 331c-23.3-55.2-56.8-104.7-99.3-147.3-42.6-42.6-92.1-76-147.3-99.3-57.1-24.2-117.8-36.5-180.3-36.5z" fill="#0F53A8" /><path d="M513.1 511.3m-392.1 0a392.1 392.1 0 1 0 784.2 0 392.1 392.1 0 1 0-784.2 0Z" fill="#B6CDEF" /><path d="M513.1 918.4c-54.9 0-108.3-10.8-158.5-32-48.5-20.5-92-49.9-129.4-87.2-37.4-37.4-66.7-80.9-87.2-129.4-21.2-50.2-32-103.5-32-158.5s10.8-108.3 32-158.5c20.5-48.5 49.9-92 87.2-129.4 37.4-37.4 80.9-66.7 129.4-87.2 50.2-21.2 103.5-32 158.5-32s108.3 10.8 158.5 32c48.5 20.5 92 49.9 129.4 87.2 37.4 37.4 66.7 80.9 87.2 129.4 21.2 50.2 32 103.5 32 158.5s-10.8 108.3-32 158.5c-20.5 48.5-49.9 92-87.2 129.4s-80.9 66.7-129.4 87.2c-50.3 21.2-103.6 32-158.5 32z m0-784.2c-50.9 0-100.3 10-146.8 29.6-44.9 19-85.2 46.2-119.9 80.8s-61.8 75-80.8 119.9C146 411 136 460.4 136 511.3c0 50.9 10 100.3 29.6 146.8 19 44.9 46.2 85.2 80.8 119.9 34.6 34.6 75 61.8 119.9 80.8 46.5 19.7 95.9 29.6 146.8 29.6s100.3-10 146.8-29.6c44.9-19 85.2-46.2 119.9-80.8 34.6-34.6 61.8-75 80.8-119.9 19.7-46.5 29.6-95.9 29.6-146.8 0-50.9-10-100.3-29.6-146.8-19-44.9-46.2-85.2-80.8-119.9-34.6-34.6-75-61.8-119.9-80.8-46.5-19.6-95.9-29.6-146.8-29.6z" fill="#0F53A8" /><path d="M486.2 484.5l233.4-179.7-179.7 233.3z" fill="#89B7F5" /><path d="M539.9 553.1c-4 0-7.8-1.6-10.6-4.4l-53.6-53.6c-3.1-3.1-4.6-7.3-4.4-11.6 0.3-4.3 2.4-8.3 5.8-10.9l233.3-179.7c6-4.6 14.4-4.1 19.8 1.3 5.3 5.3 5.9 13.8 1.3 19.8L551.8 547.3c-2.6 3.4-6.6 5.5-10.9 5.8h-1z m-31-67.1l29.5 29.5 98.8-128.3L508.9 486z" fill="#0F53A8" /><path d="M486.2 484.5L306.6 717.8l233.3-179.7z" fill="#89B7F5" /><path d="M306.6 732.8c-3.9 0-7.7-1.5-10.6-4.4-5.3-5.3-5.9-13.8-1.3-19.8l179.7-233.3c2.6-3.4 6.6-5.5 10.9-5.8 4.3-0.3 8.5 1.3 11.6 4.4l53.6 53.6c3.1 3.1 4.6 7.3 4.4 11.6-0.3 4.3-2.4 8.3-5.8 10.9L315.7 729.7c-2.7 2.1-5.9 3.1-9.1 3.1z m181.1-225.6l-98.8 128.3 128.3-98.8-29.5-29.5z" fill="#0F53A8" /><path d="M537.3 226l-41.8-56v56H491v-65.3h2.3l41.7 56v-56h4.5V226h-2.2z" fill="#0F53A8" /><path d="M544.1 230.5h-9L500 183.6v46.9h-13.5v-74.3h9.1l35 46.9v-46.9h13.5z" fill="#0F53A8" /><path d="M511 795.3c9.3 0 17.9 3.9 22.8 10.9l-2.9 2.7c-4.4-6.2-11.9-9.4-19.9-9.4h-1.1c-8.3 0-17.2 4.7-17.2 13.3 0 6.4 4.3 9.9 15.5 11.4l8 1.1c13.1 1.7 19.9 6.8 19.9 17.9 0 11.4-10.9 18.7-23.3 18.7h-0.6c-13 0-22-5.9-25.7-14.7l2.9-2.7c3.1 7.9 10.9 13.2 22.8 13.2h0.6c10.1 0 18.8-5.4 18.8-14.5 0-8.3-5.1-12.3-15.8-13.7l-8-1.1c-13.4-1.8-19.6-6.5-19.6-15.5 0-10.8 10.4-17.6 21.6-17.6h1.2z" fill="#0F53A8" /><path d="M512.8 866.4h-0.6c-14.2 0-25.3-6.6-29.8-17.5l-1.2-2.9 10-9.4 2.4 6.2c2.6 6.7 9.2 10.4 18.6 10.4h0.6c7.1 0 14.3-3.4 14.3-10 0-3.9-0.9-7.8-11.9-9.3l-8.1-1.1c-5.8-0.8-23.5-3.1-23.5-19.9 0-12.6 11.2-22.1 26.1-22.1h1.1c11 0 20.9 4.8 26.5 12.9l2.2 3.2-9.5 8.9-3-4.2c-3.4-4.7-9.4-7.5-16.2-7.5h-1.1c-4.9 0-12.7 2.4-12.7 8.8 0 2.1 0 5.4 11.6 6.9l8.1 1.1c5.8 0.7 23.7 3.1 23.7 22.4 0.2 13.2-11.8 23.1-27.6 23.1z" fill="#0F53A8" /><path d="M862.6 508.8v4.1h-34v26.9h35.7v4.2h-40.2v-65.3h40.2v4.2h-35.7v25.9h34z" fill="#0F53A8" /><path d="M868.9 548.5h-49.3v-74.3h49.3v13.2h-35.8v16.9h34v13.1h-34v17.9h35.8z" fill="#0F53A8" /><path d="M235.9 544l-23-56.1-23 56.1h-2.3l-25.7-65.3h4.9l21.9 56.7 23-56.7h2.3l23 56.7 21.9-56.7h4.9L238.1 544h-2.2z" fill="#0F53A8" /><path d="M241.2 548.5h-8.4l-20-48.8-20 48.8h-8.4l-29.2-74.3h14.5l19 49 19.9-49h8.4l19.9 49 18.9-49h14.5z" fill="#0F53A8" /></svg>